<svg width="100" height="100" viewBox="0 0 100 100" fill="none" xmlns="http://www.w3.org/2000/svg">
<path d="M12.6085 55.8934C12.5967 59.8736 14.1782 63.6931 17.0001 66.5L33.5001 83C39.3578 88.8569 48.8541 88.8569 54.7118 83L83.0001 54.7134C88.857 48.8557 88.857 39.3594 83.0001 33.5017L66.5001 17.0017C60.6424 11.1449 51.1462 11.1449 45.2885 17.0017L17.0001 45.2867C14.1785 48.0939 12.5971 51.9132 12.6085 55.8934ZM19.3585 64.1417C18.1066 62.8894 17.1579 61.3672 16.5851 59.6917L42.7701 57.4184L40.5001 83.485C38.7475 82.9195 37.1547 81.9449 35.8535 80.6417L19.3585 64.1417ZM80.6418 52.3567L52.3568 80.6417C50.1735 82.8368 47.2028 84.0671 44.1068 84.0584C44.0051 84.0584 43.9051 84.0467 43.8018 84.0434L46.1351 57.1334L46.4885 57.105C52.1372 56.6131 56.6144 52.131 57.1001 46.4817L57.1301 46.1484L84.0385 43.815C84.0385 43.9184 84.0535 44.0184 84.0535 44.12C84.0599 47.2107 82.8317 50.1758 80.6418 52.3567ZM80.6418 35.8567C81.9445 37.157 82.9192 38.7486 83.4851 40.5L57.4268 42.77L59.6935 16.585C61.368 17.1589 62.8894 18.1074 64.1418 19.3584L80.6418 35.8567ZM47.6418 19.3567C49.8251 17.1616 52.7958 15.9313 55.8918 15.94C56.0585 15.94 56.2251 15.9567 56.3918 15.965L53.9168 44.465L53.7768 46.2C53.4274 50.2305 50.2336 53.4279 46.2035 53.7817L15.9668 56.4017C15.9585 56.235 15.9418 56.0684 15.9418 55.9017C15.9331 52.8057 17.1634 49.835 19.3585 47.6517L47.6418 19.3567Z" fill="#ACB5BD"/>
<path d="M74.9999 0C74.0794 0 73.3333 0.746192 73.3333 1.66667C73.3333 2.58714 74.0794 3.33333 74.9999 3.33333C86.9604 3.34711 96.6528 13.0395 96.6666 25C96.6666 25.9205 97.4128 26.6667 98.3333 26.6667C99.2537 26.6667 99.9999 25.9205 99.9999 25C99.9843 11.1994 88.8006 0.0156142 74.9999 0Z" fill="#ACB5BD"/>
<path d="M74.9999 6.66669C74.0794 6.66669 73.3333 7.41288 73.3333 8.33335C73.3333 9.25383 74.0794 10 74.9999 10C83.28 10.0101 89.9898 16.7199 89.9999 25C89.9999 25.9205 90.7461 26.6667 91.6666 26.6667C92.587 26.6667 93.3332 25.9205 93.3332 25C93.3213 14.8798 85.1202 6.67863 74.9999 6.66669Z" fill="#ACB5BD"/>
<path d="M74.9999 16.6667C79.6 16.6722 83.3277 20.4 83.3332 25C83.3332 25.9205 84.0794 26.6667 84.9999 26.6667C85.9204 26.6667 86.6666 25.9205 86.6666 25C86.6592 18.5598 81.4402 13.3407 74.9999 13.3334C74.0794 13.3334 73.3333 14.0796 73.3333 15C73.3333 15.9205 74.0794 16.6667 74.9999 16.6667Z" fill="#ACB5BD"/>
<path d="M25 100C25.9205 100 26.6667 99.2538 26.6667 98.3333C26.6667 97.4128 25.9205 96.6667 25 96.6667C13.0395 96.6529 3.34711 86.9604 3.33333 75C3.33333 74.0795 2.58714 73.3333 1.66667 73.3333C0.746192 73.3333 0 74.0795 0 75C0.0156142 88.8006 11.1994 99.9844 25 100Z" fill="#ACB5BD"/>
<path d="M25.0001 93.3333C25.9206 93.3333 26.6667 92.5871 26.6667 91.6666C26.6667 90.7462 25.9206 90 25.0001 90C16.72 89.9899 10.0102 83.2801 10.0001 75C10.0001 74.0795 9.25389 73.3333 8.33341 73.3333C7.41294 73.3333 6.66675 74.0795 6.66675 75C6.67869 85.1202 14.8798 93.3214 25.0001 93.3333Z" fill="#ACB5BD"/>
<path d="M25.0002 83.3333C20.4001 83.3278 16.6723 79.6001 16.6668 75C16.6668 74.0795 15.9206 73.3333 15.0002 73.3333C14.0797 73.3333 13.3335 74.0795 13.3335 75C13.3408 81.4403 18.5599 86.6593 25.0002 86.6666C25.9206 86.6666 26.6668 85.9205 26.6668 85C26.6668 84.0795 25.9206 83.3333 25.0002 83.3333Z" fill="#ACB5BD"/>
<path d="M1.66667 26.6667C2.58714 26.6667 3.33333 25.9205 3.33333 25C3.34711 13.0395 13.0395 3.34711 25 3.33333C25.9205 3.33333 26.6667 2.58714 26.6667 1.66667C26.6667 0.746192 25.9205 0 25 0C11.1994 0.0156142 0.0156142 11.1994 0 25C0 25.442 0.175595 25.866 0.488155 26.1785C0.800716 26.4911 1.22464 26.6667 1.66667 26.6667Z" fill="#ACB5BD"/>
<path d="M25.0001 6.66669C14.8798 6.67863 6.67869 14.8798 6.66675 25C6.66675 25.9205 7.41294 26.6667 8.33341 26.6667C9.25389 26.6667 10.0001 25.9205 10.0001 25C10.0102 16.7199 16.72 10.0101 25.0001 10C25.9206 10 26.6667 9.25383 26.6667 8.33335C26.6667 7.41288 25.9206 6.66669 25.0001 6.66669Z" fill="#ACB5BD"/>
<path d="M25.0002 13.3334C18.5599 13.3407 13.3408 18.5598 13.3335 25C13.3335 25.9205 14.0797 26.6667 15.0002 26.6667C15.9206 26.6667 16.6668 25.9205 16.6668 25C16.6723 20.4 20.4001 16.6722 25.0002 16.6667C25.9206 16.6667 26.6668 15.9205 26.6668 15C26.6668 14.0796 25.9206 13.3334 25.0002 13.3334Z" fill="#ACB5BD"/>
<path d="M98.3333 73.3333C97.4128 73.3333 96.6666 74.0795 96.6666 75C96.6528 86.9604 86.9604 96.6529 74.9999 96.6667C74.0794 96.6667 73.3333 97.4128 73.3333 98.3333C73.3333 99.2538 74.0794 100 74.9999 100C88.8006 99.9844 99.9843 88.8006 99.9999 75C99.9999 74.0795 99.2537 73.3333 98.3333 73.3333Z" fill="#ACB5BD"/>
<path d="M74.9999 93.3333C85.1202 93.3214 93.3213 85.1202 93.3332 75C93.3332 74.0795 92.587 73.3333 91.6666 73.3333C90.7461 73.3333 89.9999 74.0795 89.9999 75C89.9898 83.2801 83.28 89.9899 74.9999 90C74.0794 90 73.3333 90.7462 73.3333 91.6666C73.3333 92.5871 74.0794 93.3333 74.9999 93.3333Z" fill="#ACB5BD"/>
<path d="M74.9999 86.6666C81.4402 86.6593 86.6592 81.4403 86.6666 75C86.6666 74.0795 85.9204 73.3333 84.9999 73.3333C84.0794 73.3333 83.3332 74.0795 83.3332 75C83.3277 79.6001 79.6 83.3278 74.9999 83.3333C74.0794 83.3333 73.3333 84.0795 73.3333 85C73.3333 85.9205 74.0794 86.6666 74.9999 86.6666Z" fill="#ACB5BD"/>
</svg>
