<svg width="179" height="22" viewBox="0 0 179 22" fill="none" xmlns="http://www.w3.org/2000/svg">
<path d="M3.98047 17.9238V1.32227H0.89209V21H12.7573V17.9238H3.98047ZM26.9419 4.36182V1.32227H15.2231V21H26.9419V17.9238H18.3115V12.4795H25.7578V9.40332H18.3115V4.36182H26.9419ZM43.8975 21H47.2422L37.9893 0.919434H37.8062L28.5532 21H31.8979L33.2407 18.0093H42.5547L43.8975 21ZM34.437 15.3604L37.9038 7.66992L41.3584 15.3604H34.437ZM64.0391 21L58.314 13.1265C60.5723 12.394 62.208 10.1846 62.208 7.64551C62.208 4.14209 59.2051 1.32227 55.543 1.32227H49.4272L49.4395 21H52.5278V13.3828H54.9448L60.2427 21H64.0391ZM52.5156 10.8193V4.38623H55.6162C57.4473 4.38623 59.022 5.74121 59.022 7.57227C59.022 9.33008 57.4717 10.8315 55.6162 10.8193H52.5156ZM78.8462 1.27344V14.103L66.2852 0.980469H66.1265V21.0244H69.2148V8.19482L81.8003 21.3418H81.9468V1.27344H78.8462Z" fill="#FE5F00"/>
<path d="M91.334 1.32227H85.731V21H91.334C97.584 21 101.478 17.228 101.478 11.1855C101.478 5.09424 97.584 1.31006 91.334 1.32227ZM91.3584 17.9238H88.8071V4.38623H91.3218C95.6431 4.38623 98.353 6.99854 98.353 11.1733C98.353 15.3237 95.6553 17.9238 91.3584 17.9238ZM116.029 4.36182V1.32227H104.31V21H116.029V17.9238H107.398V12.4795H114.845V9.40332H107.398V4.36182H116.029ZM124.928 21.3296C128.919 21.3296 131.947 19.0835 131.947 15.5923C131.947 12.4917 129.53 10.9902 126.417 9.62305C124.024 8.59766 122.206 8.04834 122.206 6.51025C122.206 5.11865 123.646 3.99561 125.453 3.99561C126.881 3.99561 128.236 4.74023 128.846 6.0708L131.141 4.48389C130.335 2.32324 128.236 0.968262 125.428 0.968262C121.888 0.968262 119.093 3.21436 119.093 6.43701C119.093 9.52539 121.656 10.7217 123.963 11.7471C126.258 12.7358 128.846 13.8345 128.846 15.6533C128.846 17.1548 127.174 18.2168 124.964 18.2168C123.072 18.2168 121.437 17.3379 120.558 15.7998L118.116 17.5454C119.239 19.8159 121.693 21.3296 124.928 21.3296ZM134.608 21H137.696V1.32227H134.608V21ZM160.096 10.2578H150.782V13.0898H156.874V13.1509C156.874 16.1538 154.334 18.2168 150.953 18.2168C146.754 18.2168 143.69 15.043 143.69 11.1855C143.69 7.1084 147.083 4.10547 150.672 4.10547C152.54 4.10547 154.615 5.05762 156.153 6.57129L157.875 4.00781C156.019 2.20117 153.187 1.00488 150.709 0.992676C145.118 0.992676 140.553 5.59473 140.553 11.1855C140.553 16.7642 145.094 21.3296 150.819 21.3296C155.934 21.3296 160.182 17.6431 160.182 11.7959C160.182 11.2466 160.145 10.7095 160.096 10.2578ZM175.746 1.27344V14.103L163.185 0.980469H163.026V21.0244H166.114V8.19482L178.7 21.3418H178.846V1.27344H175.746Z" fill="#4ABBCD"/>
</svg>
